<svg width="83" height="54" viewBox="0 0 83 54" fill="none" xmlns="http://www.w3.org/2000/svg">
<path d="M81.5852 26.4091H74.5114V14.6193C74.5114 14.2441 74.3623 13.8842 74.097 13.6189C73.8317 13.3536 73.4718 13.2045 73.0966 13.2045H50.9318V1.41477C50.9318 1.03955 50.7828 0.679699 50.5174 0.414378C50.2521 0.149057 49.8923 0 49.517 0H1.41477C1.03955 0 0.679699 0.149057 0.414377 0.414378C0.149056 0.679699 0 1.03955 0 1.41477V45.7443C0 46.1195 0.149056 46.4794 0.414377 46.7447C0.679699 47.01 1.03955 47.1591 1.41477 47.1591H12.1859C12.3785 48.927 13.2172 50.5614 14.541 51.7488C15.8648 52.9363 17.5805 53.593 19.3588 53.593C21.1371 53.593 22.8528 52.9363 24.1766 51.7488C25.5004 50.5614 26.3391 48.927 26.5317 47.1591H58.1755C58.3682 48.9294 59.2079 50.5661 60.5335 51.7552C61.859 52.9442 63.577 53.6019 65.3578 53.6019C67.1385 53.6019 68.8565 52.9442 70.1821 51.7552C71.5076 50.5661 72.3474 48.9294 72.5401 47.1591H81.5852C81.9604 47.1591 82.3203 47.01 82.5856 46.7447C82.8509 46.4794 83 46.1195 83 45.7443V27.8239C83 27.4486 82.8509 27.0888 82.5856 26.8235C82.3203 26.5581 81.9604 26.4091 81.5852 26.4091ZM19.3352 50.7809C18.4647 50.7846 17.6127 50.5298 16.8873 50.0487C16.1618 49.5676 15.5955 48.8819 15.2602 48.0786C14.925 47.2753 14.8358 46.3905 15.004 45.5364C15.1722 44.6823 15.5903 43.8974 16.2051 43.2812C16.82 42.665 17.604 42.2452 18.4577 42.0752C19.3115 41.9051 20.1964 41.9924 21.0005 42.326C21.8046 42.6595 22.4915 43.2243 22.9741 43.9487C23.4568 44.6732 23.7134 45.5246 23.7116 46.3951C23.7092 47.5494 23.2528 48.6565 22.441 49.4771C21.6292 50.2977 20.5272 50.766 19.373 50.7809H19.3352ZM19.3352 39.1703C17.7865 39.18 16.2817 39.6864 15.0423 40.6151C13.8029 41.5439 12.8942 42.8458 12.45 44.3295H2.82955V2.82955H48.1023V44.3295H26.277C25.8332 42.842 24.9221 41.5369 23.6786 40.6077C22.4351 39.6784 20.9253 39.1744 19.373 39.1703H19.3352ZM65.3531 50.7809C64.4834 50.7809 63.6332 50.5229 62.9102 50.0395C62.1872 49.5561 61.6239 48.8692 61.2915 48.0655C60.9591 47.2618 60.8726 46.3776 61.043 45.5247C61.2134 44.6719 61.6329 43.8888 62.2485 43.2745C62.8642 42.6601 63.6482 42.2423 64.5014 42.0738C65.3546 41.9052 66.2386 41.9936 67.0416 42.3277C67.8446 42.6618 68.5303 43.2267 69.0122 43.9507C69.494 44.6747 69.7502 45.5254 69.7483 46.3951C69.7458 47.5592 69.2816 48.6747 68.4576 49.4969C67.6336 50.3191 66.5171 50.7809 65.3531 50.7809ZM80.1705 44.3295H72.276C71.8239 42.8523 70.9095 41.5593 69.6675 40.6406C68.4256 39.7218 66.9215 39.226 65.3766 39.226C63.8318 39.226 62.3277 39.7218 61.0857 40.6406C59.8438 41.5593 58.9294 42.8523 58.4773 44.3295H50.9318V16.0341H71.6818V27.8239C71.6818 28.1991 71.8309 28.5589 72.0962 28.8243C72.3615 29.0896 72.7214 29.2386 73.0966 29.2386H80.1705V44.3295Z" fill="black"/>
<path d="M8.96018 16.9773H37.7272L33.0113 21.6932C32.8723 21.8227 32.7608 21.9789 32.6835 22.1524C32.6062 22.326 32.5646 22.5133 32.5612 22.7033C32.5579 22.8932 32.5928 23.0819 32.664 23.2581C32.7352 23.4343 32.8411 23.5943 32.9754 23.7286C33.1098 23.863 33.2698 23.9689 33.4459 24.04C33.6221 24.1112 33.8108 24.1461 34.0008 24.1428C34.1907 24.1394 34.3781 24.0979 34.5516 24.0205C34.7252 23.9432 34.8813 23.8317 35.0109 23.6927L41.3585 17.3451C41.6234 17.0798 41.7722 16.7203 41.7722 16.3453C41.7722 15.9704 41.6234 15.6108 41.3585 15.3456L35.0109 8.99795C34.8771 8.86666 34.7188 8.763 34.5449 8.69289C34.3711 8.62278 34.1852 8.58761 33.9978 8.58936C33.8103 8.59111 33.6251 8.62976 33.4526 8.7031C33.2801 8.77645 33.1237 8.88305 32.9925 9.01682C32.8612 9.15058 32.7575 9.3089 32.6874 9.48273C32.6173 9.65656 32.5821 9.8425 32.5839 10.0299C32.5856 10.2174 32.6243 10.4026 32.6976 10.5751C32.771 10.7476 32.8776 10.9039 33.0113 11.0352L36.1238 14.1477H8.96018C8.58496 14.1477 8.22511 14.2968 7.95979 14.5621C7.69447 14.8274 7.54541 15.1873 7.54541 15.5625C7.54541 15.9377 7.69447 16.2976 7.95979 16.5629C8.22511 16.8282 8.58496 16.9773 8.96018 16.9773Z" fill="black"/>
<path d="M39.6139 30.6534C39.6139 30.2782 39.4648 29.9183 39.1995 29.653C38.9342 29.3877 38.5743 29.2386 38.1991 29.2386H9.52635L14.1479 24.6265C14.2786 24.494 14.3819 24.337 14.4519 24.1645C14.5219 23.9921 14.5573 23.8075 14.556 23.6214C14.5547 23.4353 14.5167 23.2513 14.4443 23.0798C14.3718 22.9084 14.2663 22.7529 14.1338 22.6222C14.0013 22.4916 13.8443 22.3883 13.6718 22.3183C13.4994 22.2483 13.3148 22.2129 13.1287 22.2142C12.9426 22.2155 12.7586 22.2535 12.5871 22.3259C12.4157 22.3984 12.2602 22.5038 12.1295 22.6364L5.78192 28.984C5.51698 29.2493 5.36816 29.6088 5.36816 29.9838C5.36816 30.3587 5.51698 30.7183 5.78192 30.9835L12.1295 37.3312C12.3959 37.5988 12.7578 37.7497 13.1354 37.7506C13.513 37.7514 13.8756 37.6023 14.1432 37.3359C14.4109 37.0695 14.5617 36.7076 14.5626 36.33C14.5635 35.9524 14.4143 35.5898 14.1479 35.3222L10.8845 32.0682H38.2368C38.6055 32.0584 38.9557 31.905 39.2129 31.6407C39.4701 31.3764 39.614 31.0222 39.6139 30.6534Z" fill="black"/>
</svg>
