<svg width="68" height="52" viewBox="0 0 68 52" fill="none" xmlns="http://www.w3.org/2000/svg">
<path d="M62.6747 8.19279H55.2275C55.2119 8.13966 55.1927 8.08765 55.1701 8.03713L51.3605 0.663632C51.2564 0.46264 51.0987 0.294312 50.905 0.177213C50.7113 0.0601137 50.489 -0.00120593 50.2626 1.7969e-05H33.3036C33.0786 0.000299776 32.8581 0.06233 32.6659 0.179347C32.4738 0.296365 32.3175 0.463878 32.214 0.663632L28.4043 8.03713C28.3817 8.08765 28.3626 8.13966 28.347 8.19279H5.3253C3.91361 8.19496 2.56036 8.75671 1.56214 9.75493C0.563919 10.7531 0.00216684 12.1064 0 13.5181V46.2892C0.00216684 47.7009 0.563919 49.0541 1.56214 50.0523C2.56036 51.0506 3.91361 51.6123 5.3253 51.6145H62.6747C64.0864 51.6123 65.4396 51.0506 66.4379 50.0523C67.4361 49.0541 67.9978 47.7009 68 46.2892V13.5181C67.9978 12.1064 67.4361 10.7531 66.4379 9.75493C65.4396 8.75671 64.0864 8.19496 62.6747 8.19279ZM34.0492 2.45785H49.5171L52.4747 8.19279H31.0916L34.0492 2.45785ZM2.45783 46.2892V13.5181C2.45783 12.7576 2.75994 12.0282 3.29769 11.4905C3.83545 10.9527 4.5648 10.6506 5.3253 10.6506H14.747V49.1566H5.3253C4.5648 49.1566 3.83545 48.8545 3.29769 48.3168C2.75994 47.779 2.45783 47.0497 2.45783 46.2892ZM65.5422 46.2892C65.5422 47.0497 65.2401 47.779 64.7023 48.3168C64.1646 48.8545 63.4352 49.1566 62.6747 49.1566H17.2048V10.6506H62.6747C63.4352 10.6506 64.1646 10.9527 64.7023 11.4905C65.2401 12.0282 65.5422 12.7576 65.5422 13.5181V46.2892Z" fill="black"/>
<path d="M41.7831 14.747C38.7044 14.747 35.6948 15.66 33.1349 17.3704C30.5751 19.0808 28.5799 21.512 27.4017 24.3563C26.2235 27.2007 25.9153 30.3305 26.5159 33.3501C27.1165 36.3697 28.5991 39.1433 30.7761 41.3203C32.953 43.4973 35.7267 44.9798 38.7462 45.5804C41.7658 46.1811 44.8957 45.8728 47.74 44.6946C50.5844 43.5165 53.0155 41.5213 54.7259 38.9614C56.4364 36.4016 57.3493 33.392 57.3493 30.3133C57.3493 26.1848 55.7093 22.2255 52.7901 19.3063C49.8708 16.387 45.9115 14.747 41.7831 14.747ZM41.7831 43.4217C39.1905 43.4217 36.6561 42.6529 34.5004 41.2125C32.3447 39.7722 30.6646 37.7249 29.6725 35.3297C28.6803 32.9344 28.4207 30.2987 28.9265 27.7559C29.4323 25.2132 30.6808 22.8775 32.514 21.0442C34.3473 19.211 36.683 17.9625 39.2257 17.4567C41.7685 16.9509 44.4042 17.2105 46.7994 18.2027C49.1947 19.1948 51.242 20.8749 52.6823 23.0306C54.1227 25.1863 54.8915 27.7207 54.8915 30.3133C54.8915 33.7898 53.5104 37.124 51.0521 39.5823C48.5938 42.0406 45.2596 43.4217 41.7831 43.4217Z" fill="black"/>
<path d="M41.783 21.3012C40.0006 21.3012 38.2582 21.8298 36.7762 22.82C35.2942 23.8103 34.1391 25.2178 33.457 26.8645C32.7749 28.5112 32.5964 30.3233 32.9442 32.0714C33.2919 33.8196 34.1502 35.4254 35.4106 36.6857C36.6709 37.9461 38.2767 38.8044 40.0249 39.1521C41.7731 39.4999 43.5851 39.3214 45.2318 38.6393C46.8785 37.9572 48.286 36.8021 49.2763 35.3201C50.2665 33.8381 50.7951 32.0957 50.7951 30.3133C50.7951 27.9231 49.8456 25.6309 48.1555 23.9408C46.4654 22.2507 44.1732 21.3012 41.783 21.3012ZM41.783 36.8675C40.4867 36.8675 39.2196 36.4831 38.1417 35.7629C37.0639 35.0427 36.2238 34.0191 35.7277 32.8214C35.2317 31.6238 35.1019 30.306 35.3548 29.0346C35.6077 27.7632 36.2319 26.5954 37.1485 25.6787C38.0651 24.7621 39.233 24.1379 40.5044 23.885C41.7758 23.6321 43.0936 23.7619 44.2912 24.2579C45.4889 24.754 46.5125 25.5941 47.2327 26.6719C47.9529 27.7498 48.3373 29.017 48.3373 30.3133C48.3373 32.0515 47.6467 33.7186 46.4176 34.9478C45.1884 36.1769 43.5213 36.8675 41.783 36.8675Z" fill="black"/>
<path d="M5.32535 4.09638H12.6988C13.0248 4.09638 13.3374 3.96691 13.5678 3.73644C13.7983 3.50597 13.9278 3.19339 13.9278 2.86747C13.9278 2.54154 13.7983 2.22896 13.5678 1.99849C13.3374 1.76803 13.0248 1.63855 12.6988 1.63855H5.32535C4.99942 1.63855 4.68684 1.76803 4.45638 1.99849C4.22591 2.22896 4.09644 2.54154 4.09644 2.86747C4.09644 3.19339 4.22591 3.50597 4.45638 3.73644C4.68684 3.96691 4.99942 4.09638 5.32535 4.09638Z" fill="black"/>
</svg>
