<svg width="33" height="34" viewBox="0 0 33 34" fill="none" xmlns="http://www.w3.org/2000/svg">
<path d="M16.42 25.7428C15.1714 26.5134 13.3536 26.1093 12.606 24.8974L7.20051 16.1371C6.44072 14.9055 6.82367 13.2857 8.05438 12.5264L7.68366 11.9261L8.05438 12.5264L12.7824 9.6072L8.61939 2.8623L3.89416 5.77912C-0.741224 8.63995 -0.590209 16.1315 4.26205 23.9965C6.48259 27.5959 9.2785 30.4587 12.1337 32.0577C13.8151 32.9991 15.472 33.4719 17.0156 33.4714C18.3117 33.4714 19.5278 33.1384 20.6117 32.4694L25.1596 29.6641L20.9966 22.9173L16.42 25.7428ZM19.8708 31.2683C17.4112 32.7865 14.6807 31.8663 12.8238 30.8261C10.1742 29.3427 7.5604 26.6541 5.46359 23.2555C1.04791 16.0971 0.707773 9.40444 4.63606 6.97972L4.26535 6.37942L4.63606 6.97972L8.15976 4.80434L10.8404 9.14757L7.31294 11.3253C5.41984 12.4934 4.83083 14.9845 5.99944 16.8781L11.4045 25.6379C12.5599 27.5117 15.25 28.121 17.1605 26.9434L20.5369 24.8593L23.2176 29.203L19.8708 31.2683Z" fill="black"/>
<path d="M21.2863 13.0328C22.3331 14.6399 22.5848 16.6087 21.9765 18.4351L23.3158 18.881C24.0606 16.6445 23.752 14.232 22.4695 12.2632C21.148 10.228 18.9082 8.92765 16.4778 8.78369L16.3945 10.1927C18.4085 10.3117 20.1916 11.3467 21.2863 13.0328Z" fill="black"/>
<path d="M17.4328 4.11426L17.2715 5.51621C20.5501 5.89304 23.4603 7.69206 25.2565 10.4508C26.9958 13.1253 27.4888 16.4185 26.6081 19.4873L27.9649 19.8763C28.958 16.4147 28.4024 12.6986 26.4397 9.68114C24.413 6.56815 21.1306 4.53908 17.4328 4.11426Z" fill="black"/>
<path d="M29.9562 7.39271C27.3325 3.35763 23.0932 0.662869 18.3256 0L18.1313 1.39819C22.4934 2.0046 26.3723 4.47025 28.773 8.16237C31.1253 11.7759 31.831 16.2387 30.7094 20.4073L32.0723 20.7738C33.2978 16.2189 32.5263 11.3412 29.9562 7.39271Z" fill="black"/>
</svg>
