<svg width="34" height="33" viewBox="0 0 34 33" fill="none" xmlns="http://www.w3.org/2000/svg">
<path d="M32.5862 16.3389C32.5862 25.0943 25.6061 32.1778 17.0129 32.1778C8.41967 32.1778 1.43958 25.0943 1.43958 16.3389C1.43958 7.58357 8.41967 0.5 17.0129 0.5C25.6061 0.5 32.5862 7.58357 32.5862 16.3389Z" stroke="#0088CC"/>
<path d="M13.7193 19.3241L13.6718 19.2869L13.6168 19.2621L11.1227 18.1353L11.109 18.1291L11.0949 18.1237L6.66088 16.4334L6.57454 16.4005H6.49219C6.48948 16.4003 6.48503 16.3997 6.47936 16.3988C6.4616 16.3958 6.44506 16.3907 6.43381 16.3853C6.43188 16.3769 6.42969 16.3622 6.42969 16.3389V16.2222L6.38267 16.1266C6.39039 16.1183 6.40164 16.1074 6.4177 16.0944C6.463 16.0575 6.52041 16.0245 6.57311 15.9993C6.59801 15.9874 6.61872 15.9787 6.63199 15.9734L6.64513 15.9684C6.6453 15.9683 6.64546 15.9683 6.64559 15.9682L6.65666 15.9645L6.66986 15.9592L24.1286 8.91652L24.129 8.91638L24.1292 8.91629L24.1295 8.91617L24.1297 8.91609L24.1299 8.916L24.13 8.91599L24.1373 8.91313C24.1445 8.91034 24.1562 8.9059 24.1717 8.90028C24.2028 8.88897 24.2486 8.87315 24.3038 8.85631C24.4178 8.82155 24.5564 8.78734 24.6845 8.77432C24.7374 8.76894 24.7783 8.76828 24.8088 8.76958L21.8009 24.6139C21.7915 24.6288 21.7799 24.6462 21.7662 24.6654C21.7161 24.7353 21.6455 24.8175 21.5583 24.884C21.4727 24.9492 21.3807 24.9925 21.2796 25.0054C21.1893 25.0168 21.0602 25.0082 20.8831 24.9258L13.7193 19.3241ZM6.43666 16.3942C6.43662 16.3942 6.43629 16.3936 6.43579 16.3922C6.43646 16.3935 6.43671 16.3942 6.43666 16.3942ZM21.8299 24.5646C21.8299 24.5646 21.8296 24.5652 21.829 24.5664L21.8293 24.5659L21.8299 24.5647L21.8299 24.5646Z" stroke="#0088CC" stroke-width="1.00359"/>
<path d="M12.783 22.6036C12.734 22.4648 12.6784 22.3029 12.6176 22.1222C12.4497 21.6231 12.2512 21.009 12.0608 20.4111C11.8706 19.8134 11.689 19.2331 11.5549 18.8022C11.4979 18.6191 11.4495 18.463 11.4127 18.344L20.2721 12.6561C19.4694 13.3921 18.3882 14.3804 17.3109 15.3641C16.2891 16.2972 15.2759 17.2215 14.5182 17.9125L13.6041 18.746L13.3485 18.979L13.2813 19.0403L13.2641 19.056L13.2597 19.0599L13.2586 19.0609L13.2583 19.0612C13.2583 19.0612 13.2582 19.0613 13.494 19.32L13.2582 19.0613L13.1604 19.1504L13.1461 19.2819L12.783 22.6036Z" stroke="#0088CC" stroke-width="0.7"/>
<path d="M15.7897 21.5832L13.4213 23.7501L13.8322 19.9912L15.7897 21.5832Z" stroke="#0088CC" stroke-width="0.7"/>
</svg>
