<svg width="32" height="33" viewBox="0 0 32 33" fill="none" xmlns="http://www.w3.org/2000/svg">
<path d="M15.8703 7.97587L15.9428 7.97855C20.0377 8.12984 23.5813 11.8871 23.51 16.0382C23.5101 16.0811 23.5124 16.1186 23.5153 16.1679C23.5175 16.2048 23.5201 16.2482 23.5225 16.3054C23.5272 16.4152 23.5298 16.5663 23.5014 16.7177C23.4725 16.8716 23.4031 17.072 23.2267 17.2304C23.045 17.3935 22.8173 17.4521 22.593 17.4521C22.3689 17.4521 22.1389 17.3935 21.9559 17.2262C21.7792 17.0645 21.7118 16.8604 21.684 16.7048C21.6565 16.5512 21.6589 16.3952 21.6635 16.2775C21.6655 16.2235 21.6679 16.1786 21.67 16.1384C21.6728 16.0846 21.6752 16.0392 21.6759 15.9917C21.6444 15.7309 21.6071 15.4803 21.564 15.2395C21.5645 15.269 21.5648 15.2985 21.5648 15.3281V15.3889L21.5502 15.448C21.5504 15.4473 21.5504 15.4475 21.5503 15.4489C21.5498 15.4547 21.5475 15.482 21.5493 15.5573C21.5495 15.5661 21.5498 15.576 21.5502 15.5869C21.5524 15.6594 21.5558 15.7743 21.5446 15.8826C21.5312 16.0126 21.4918 16.202 21.3531 16.3706C21.2057 16.5498 21.0017 16.6393 20.7891 16.6702L20.7813 16.6713L20.7734 16.6722C20.551 16.6973 20.3138 16.6757 20.1072 16.5437C19.8955 16.4084 19.798 16.2098 19.7514 16.0521C19.7076 15.9035 19.6971 15.7499 19.6907 15.6513C19.6897 15.6357 19.6888 15.6212 19.688 15.6076C19.6821 15.5149 19.679 15.4659 19.6709 15.4246L19.6683 15.4113L19.6685 15.4112C19.6643 15.3864 19.6601 15.3617 19.6558 15.3373C19.6432 15.3978 19.626 15.4596 19.6022 15.5198C19.5504 15.6515 19.465 15.7876 19.3278 15.8986C19.191 16.0093 19.029 16.074 18.8556 16.1034L18.8142 16.1104H18.7722C18.4865 16.1104 18.2472 15.9933 18.0766 15.8007C17.9222 15.6265 17.8442 15.4142 17.8002 15.2353L17.7897 15.1926L17.7869 15.1487C17.7574 14.7 17.6301 14.4177 17.4551 14.2342C17.2786 14.0491 16.9983 13.9066 16.5514 13.8459L16.5232 13.842L16.4955 13.835C16.4876 13.833 16.479 13.8308 16.4697 13.8285C16.4106 13.8137 16.327 13.7927 16.2478 13.7663C16.1558 13.7356 16.0314 13.6859 15.9162 13.598C15.7924 13.5037 15.6771 13.3632 15.6266 13.1676C15.5798 12.9867 15.6014 12.8077 15.6518 12.6465C15.6899 12.5046 15.7604 12.3737 15.8686 12.2667C15.9792 12.1573 16.1056 12.0962 16.2175 12.0612C16.4058 12.0023 16.6139 12.0028 16.735 12.0031C16.738 12.0031 16.7411 12.0031 16.744 12.0031C16.7803 12.0012 16.8165 12.0003 16.8526 12.0003C16.6826 11.9524 16.5008 11.9066 16.3062 11.8625C16.2648 11.8544 16.2224 11.8495 16.1596 11.8424C16.132 11.8393 16.1005 11.8357 16.0635 11.8312C15.9606 11.8187 15.8128 11.7984 15.6696 11.7474C15.5213 11.6946 15.3369 11.5947 15.2089 11.3964C15.0794 11.1958 15.0536 10.9666 15.0806 10.7474C15.1082 10.5223 15.195 10.3005 15.3813 10.1386C15.5633 9.98052 15.7747 9.93687 15.9359 9.92946C16.0946 9.92216 16.2476 9.94784 16.3613 9.97124C16.4204 9.98339 16.4776 9.99688 16.5254 10.0081C16.5666 10.0179 16.5998 10.0257 16.6292 10.032C16.8033 10.0524 16.9754 10.081 17.1449 10.1173C16.7247 9.99767 16.2691 9.8988 15.7753 9.81954L15.7651 9.8179L15.755 9.81584C15.7031 9.8053 15.6445 9.79917 15.5547 9.78977C15.5453 9.78879 15.5356 9.78778 15.5256 9.78672C15.4341 9.7771 15.3038 9.763 15.1784 9.72942C15.053 9.69587 14.88 9.62997 14.7387 9.48023C14.585 9.31728 14.521 9.1116 14.521 8.90203C14.521 8.62501 14.6036 8.33981 14.8523 8.15187C15.0676 7.9892 15.3162 7.97504 15.4544 7.97491C15.4561 7.97491 15.4578 7.97491 15.4595 7.97491L15.4587 8.47491C15.5222 8.47367 15.5873 8.47843 15.6505 8.48305C15.7047 8.48703 15.7575 8.49089 15.8066 8.49074L15.8703 7.97587ZM15.8703 7.97587L15.8132 7.99052M15.8703 7.97587L15.8132 7.99052M15.8132 7.99052C15.8109 7.99061 15.8078 7.9907 15.8039 7.99074L15.8132 7.99052ZM19.7097 25.5194C19.726 25.5228 19.7365 25.5254 19.7423 25.527L19.8331 25.5731H19.9529C20.7272 25.5731 21.5107 25.2084 22.1374 24.7162C22.7656 24.2227 23.3022 23.5502 23.5498 22.8408C23.6761 22.4967 23.7179 22.1714 23.6741 21.8627C23.63 21.5523 23.5042 21.2918 23.345 21.0723C23.1045 20.7406 22.7471 20.4607 22.4608 20.2365C22.3996 20.1886 22.3417 20.1432 22.2888 20.1004C21.922 19.7816 21.5068 19.4921 21.1348 19.2326C20.9937 19.1342 20.8588 19.0401 20.7351 18.9504C20.166 18.5269 19.5365 18.2537 18.8892 18.3269C18.2214 18.4023 17.671 18.8289 17.2384 19.5086L17.2339 19.5158L17.2296 19.523C17.0827 19.772 16.9364 19.8454 16.814 19.868C16.6686 19.8949 16.4672 19.8654 16.2055 19.7482C14.5505 18.9391 13.2629 17.8147 12.4893 16.1115C12.3381 15.7729 12.2885 15.4893 12.3269 15.2611C12.362 15.0522 12.4803 14.8292 12.8003 14.6123L12.8005 14.6122L12.8048 14.6092C13.2046 14.338 13.9498 13.8324 13.8512 12.8114C13.836 12.6339 13.7764 12.444 13.7074 12.2687C13.6347 12.0844 13.5378 11.8824 13.4261 11.6738C13.2024 11.2564 12.9061 10.788 12.5882 10.342C12.2707 9.89639 11.9239 9.46227 11.5965 9.11656C11.433 8.94388 11.2684 8.78691 11.1096 8.66008C10.9618 8.54196 10.7912 8.42721 10.6115 8.36323C10.1523 8.17994 9.67916 8.17969 9.2199 8.3625C8.18789 8.71541 7.39653 9.35655 6.98161 10.2107C6.56335 11.0716 6.5584 12.0862 6.98518 13.1148C9.26106 18.8954 13.3911 22.8702 18.9168 25.3185L18.9238 25.3216L18.931 25.3246C19.1554 25.4158 19.372 25.4583 19.526 25.4859C19.5523 25.4906 19.5753 25.4946 19.596 25.4983C19.6423 25.5064 19.6768 25.5124 19.7097 25.5194ZM0.5 16.2644C0.5 7.55031 7.44734 0.5 15.9999 0.5C24.5525 0.5 31.4999 7.55031 31.4999 16.2644C31.4999 24.9786 24.5525 32.0289 15.9999 32.0289C7.44734 32.0289 0.5 24.9786 0.5 16.2644Z" stroke="#7360F2"/>
</svg>
