<svg width="33" height="33" viewBox="0 0 33 33" fill="none" xmlns="http://www.w3.org/2000/svg">
<path d="M3.74799 24.6429L3.73081 24.608L3.70843 24.5761C2.03425 22.1935 1.35339 19.4596 1.35339 16.3389C1.35339 7.72746 8.47504 0.5 16.9267 0.5C20.9877 0.5 25.0517 2.22355 27.7517 4.96816C30.807 8.07401 32.5 12.2114 32.5 16.3389C32.5 24.9504 25.3784 32.1778 16.9267 32.1778C14.2171 32.1778 11.5297 31.4902 9.18382 29.7869L9.15183 29.7637L9.11659 29.7458L8.41775 29.3906L8.23953 29.3L8.04798 29.3572L2.93223 30.8867L4.13587 25.6867L4.17605 25.5131L4.09741 25.3533L3.74799 24.6429Z" stroke="#43D854"/>
<path d="M9.89234 10.5774C10.2823 9.85615 11.004 9.2504 12.1403 8.87194M9.89234 10.5774L12.1403 8.87194M9.89234 10.5774C9.48214 11.3361 9.40551 12.2708 9.60668 13.3028C10.0117 15.3806 11.509 17.7431 13.4646 19.7439C15.4199 21.7443 17.7472 23.2878 19.8348 23.7208C20.8691 23.9353 21.8153 23.8649 22.6076 23.45M9.89234 10.5774L22.6076 23.45M12.1403 8.87194L14.729 13.1566L13.7441 14.1417L13.47 14.4159L13.6673 14.7496C14.9933 16.9934 16.5201 18.7126 18.6164 19.6995L18.933 19.8485L19.1814 19.6021L20.2663 18.5262L24.458 21.1535C24.0151 22.3179 23.3625 23.0547 22.6076 23.45M12.1403 8.87194L22.6076 23.45M15.2196 13.1685L15.2287 13.1773L15.2316 13.1801L15.2397 13.1879L15.2421 13.1902L15.2594 13.2069L15.2609 13.2083L15.27 13.217L15.2709 13.218L15.2901 13.2364L14.9637 12.9128L14.9975 12.8761L15.1452 12.8784L15.194 12.9593L15.2036 12.9688M15.2196 13.1685L15.2195 13.1623L15.2194 13.159L15.2194 13.1545M15.2196 13.1685L15.2197 13.177L15.2198 13.1803L15.2198 13.1821L15.2199 13.1876L15.2199 13.1909L15.2202 13.2056L15.2202 13.2089L15.2203 13.2163L15.2204 13.2195L15.2205 13.2264L15.119 13.0381L15.1215 13.0381L15.2036 12.9688M15.2196 13.1685L15.2166 13.1657L15.2133 13.1625L15.2097 13.159L15.2099 13.1588L15.2168 13.1557L15.2194 13.1545M15.2194 13.1545L15.2258 13.1516L15.2319 13.1487L15.2679 13.1322L15.2701 13.1312L15.2901 13.1219L15.2443 13.1227L15.2189 13.1231M15.2194 13.1545L15.2193 13.1517L15.2193 13.1484L15.2191 13.1365L15.219 13.1337L15.219 13.1304L15.2189 13.1231M15.2189 13.1231L15.2189 13.1217M15.2189 13.1231L15.2173 13.1231L15.2158 13.1231L15.2173 13.1224L15.2189 13.1217M15.2189 13.1217L15.2604 13.1025L15.2805 13.0933L15.2392 13.0939M15.2189 13.1217L15.2187 13.1128L15.2304 13.1021L15.2392 13.0939M15.2392 13.0939L15.2455 13.0881L15.2607 13.0741L15.2709 13.0647L15.2338 13.0653L15.2211 13.0655M15.2392 13.0939L15.2347 13.094L15.2184 13.0943L15.2182 13.0824L15.2181 13.0734L15.2181 13.0727L15.218 13.0684L15.2182 13.0683L15.2211 13.0655M15.2211 13.0655L15.2419 13.0454L15.2517 13.036L15.2327 13.0363L15.2227 13.0365L15.2187 13.0366L15.2175 13.0366M15.2211 13.0655L15.2182 13.0655L15.218 13.0655L15.2178 13.0521L15.2177 13.0451L15.2176 13.0391L15.2175 13.0366M15.2175 13.0366L15.2167 12.9855C15.2125 12.9798 15.2082 12.9742 15.2036 12.9688M15.2175 13.0366L15.1318 13.0379L15.2036 12.9688M12.2308 8.64954L12.2315 8.64834L12.2308 8.64954ZM12.2308 8.64954L12.2307 8.64927L12.2298 8.64451L12.2308 8.64954Z" stroke="#43D854"/>
</svg>
