<svg width="58" height="38" viewBox="0 0 58 38" fill="none" xmlns="http://www.w3.org/2000/svg">
<path d="M53.5053 0H4.49529C2.01678 0 0 2.01678 0 4.49528V7.49961V13.9737V33.439C0 35.9175 2.01678 37.9336 4.49529 37.9336H53.5053C55.9838 37.9336 58 35.9175 58 33.439V13.9737V7.49961V4.49528C58 2.01678 55.9838 0 53.5053 0ZM4.49466 1.86681H53.5047C54.954 1.86681 56.1326 3.04602 56.1326 4.49528V6.5662H1.86619V4.49528C1.86681 3.04539 3.04539 1.86681 4.49466 1.86681ZM56.1332 13.0397H1.86681V8.43239H56.1332V13.0397ZM53.5053 36.0662H4.49529C3.04602 36.0662 1.86681 34.887 1.86681 33.4383V14.9065H56.1332V33.4383C56.1332 34.887 54.954 36.0662 53.5053 36.0662Z" fill="black"/>
<path d="M9.02094 25.879C7.22694 25.879 5.76709 27.3395 5.76709 29.1341C5.76709 30.9275 7.22694 32.3867 9.02094 32.3867C10.8162 32.3867 12.276 30.9275 12.276 29.1341C12.276 27.3395 10.8162 25.879 9.02094 25.879ZM9.02094 30.5199C8.25617 30.5199 7.6339 29.8983 7.6339 29.1341C7.6339 28.3687 8.25617 27.7458 9.02094 27.7458C9.78634 27.7458 10.4092 28.3687 10.4092 29.1341C10.4092 29.8983 9.78634 30.5199 9.02094 30.5199Z" fill="black"/>
<path d="M42.2814 28.3102H15.9817C15.4659 28.3102 15.0483 28.7277 15.0483 29.2436C15.0483 29.7594 15.4659 30.177 15.9817 30.177H42.2814C42.7973 30.177 43.2148 29.7594 43.2148 29.2436C43.2148 28.7277 42.7973 28.3102 42.2814 28.3102Z" fill="black"/>
</svg>
