<svg width="94" height="61" viewBox="0 0 94 61" fill="none" xmlns="http://www.w3.org/2000/svg">
<path d="M85.984 0H7.224C3.241 0 0 3.241 0 7.224V12.052V22.456V53.737C0 57.72 3.241 60.96 7.224 60.96H85.984C89.967 60.96 93.207 57.72 93.207 53.737V22.456V12.052V7.224C93.207 3.241 89.967 0 85.984 0ZM7.223 3H85.983C88.312 3 90.206 4.895 90.206 7.224V10.552H2.999V7.224C3 4.894 4.894 3 7.223 3ZM90.207 20.955H3V13.551H90.207V20.955ZM85.984 57.959H7.224C4.895 57.959 3 56.064 3 53.736V23.955H90.207V53.736C90.207 56.064 88.312 57.959 85.984 57.959Z" fill="black"/>
<path d="M14.4966 41.5879C11.6136 41.5879 9.26758 43.9349 9.26758 46.8189C9.26758 49.7009 11.6136 52.0459 14.4966 52.0459C17.3816 52.0459 19.7276 49.7009 19.7276 46.8189C19.7276 43.9349 17.3816 41.5879 14.4966 41.5879ZM14.4966 49.0459C13.2676 49.0459 12.2676 48.0469 12.2676 46.8189C12.2676 45.5889 13.2676 44.5879 14.4966 44.5879C15.7266 44.5879 16.7276 45.5889 16.7276 46.8189C16.7276 48.0469 15.7266 49.0459 14.4966 49.0459Z" fill="black"/>
<path d="M67.9466 45.4951H25.6826C24.8536 45.4951 24.1826 46.1661 24.1826 46.9951C24.1826 47.8241 24.8536 48.4951 25.6826 48.4951H67.9466C68.7756 48.4951 69.4466 47.8241 69.4466 46.9951C69.4466 46.1661 68.7756 45.4951 67.9466 45.4951Z" fill="black"/>
</svg>
