<svg width="236" height="61" viewBox="0 0 236 61" fill="none" xmlns="http://www.w3.org/2000/svg">
<path d="M85.984 0H7.224C3.241 0 0 3.241 0 7.224V12.052V22.456V53.737C0 57.72 3.241 60.96 7.224 60.96H85.984C89.967 60.96 93.207 57.72 93.207 53.737V22.456V12.052V7.224C93.207 3.241 89.967 0 85.984 0ZM7.223 3H85.983C88.312 3 90.206 4.895 90.206 7.224V10.552H2.999V7.224C3 4.894 4.894 3 7.223 3ZM90.207 20.955H3V13.551H90.207V20.955ZM85.984 57.959H7.224C4.895 57.959 3 56.064 3 53.736V23.955H90.207V53.736C90.207 56.064 88.312 57.959 85.984 57.959Z" fill="black"/>
<path d="M14.4966 41.5879C11.6136 41.5879 9.26758 43.9349 9.26758 46.8189C9.26758 49.7009 11.6136 52.0459 14.4966 52.0459C17.3816 52.0459 19.7276 49.7009 19.7276 46.8189C19.7276 43.9349 17.3816 41.5879 14.4966 41.5879ZM14.4966 49.0459C13.2676 49.0459 12.2676 48.0469 12.2676 46.8189C12.2676 45.5889 13.2676 44.5879 14.4966 44.5879C15.7266 44.5879 16.7276 45.5889 16.7276 46.8189C16.7276 48.0469 15.7266 49.0459 14.4966 49.0459Z" fill="black"/>
<path d="M67.9466 45.4951H25.6826C24.8536 45.4951 24.1826 46.1661 24.1826 46.9951C24.1826 47.8241 24.8536 48.4951 25.6826 48.4951H67.9466C68.7756 48.4951 69.4466 47.8241 69.4466 46.9951C69.4466 46.1661 68.7756 45.4951 67.9466 45.4951Z" fill="black"/>
<path d="M101.41 23.1682C101.365 23.2132 101.347 23.2712 101.309 23.3192C101.293 23.3422 101.277 23.3652 101.262 23.3892C100.877 23.9552 100.909 24.7202 101.411 25.2222L109.203 33.0172C109.77 33.5842 110.691 33.5852 111.258 33.0172C111.542 32.7332 111.684 32.3622 111.684 31.9902C111.684 31.6182 111.542 31.2462 111.258 30.9632L105.912 25.6152H131.697C132.5 25.6152 133.15 24.9652 133.15 24.1622C133.15 23.3592 132.5 22.7092 131.697 22.7092H105.978L111.203 17.4802C111.771 16.9122 111.769 15.9922 111.203 15.4252C110.635 14.8582 109.715 14.8582 109.148 15.4252L101.41 23.1682Z" fill="black"/>
<path d="M136.741 42.2746C136.786 42.2296 136.804 42.1716 136.842 42.1236C136.858 42.1006 136.874 42.0776 136.889 42.0536C137.274 41.4876 137.242 40.7226 136.74 40.2206L128.948 32.4256C128.381 31.8586 127.46 31.8576 126.893 32.4256C126.609 32.7096 126.467 33.0806 126.467 33.4526C126.467 33.8246 126.609 34.1966 126.893 34.4796L132.239 39.8276L106.453 39.8276C105.65 39.8276 105 40.4776 105 41.2806C105 42.0836 105.65 42.7336 106.453 42.7336L132.173 42.7336L126.948 47.9626C126.38 48.5306 126.382 49.4506 126.948 50.0176C127.516 50.5846 128.436 50.5846 129.003 50.0176L136.741 42.2746Z" fill="black"/>
<path d="M227.984 0H149.224C145.241 0 142 3.241 142 7.224V12.052V22.456V53.737C142 57.72 145.241 60.96 149.224 60.96H227.984C231.967 60.96 235.207 57.72 235.207 53.737V22.456V12.052V7.224C235.207 3.241 231.967 0 227.984 0ZM149.223 3H227.983C230.312 3 232.206 4.895 232.206 7.224V10.552H144.999V7.224C145 4.894 146.894 3 149.223 3ZM232.207 20.955H145V13.551H232.207V20.955ZM227.984 57.959H149.224C146.895 57.959 145 56.064 145 53.736V23.955H232.207V53.736C232.207 56.064 230.312 57.959 227.984 57.959Z" fill="black"/>
<path d="M156.497 41.5879C153.614 41.5879 151.268 43.9349 151.268 46.8189C151.268 49.7009 153.614 52.0459 156.497 52.0459C159.382 52.0459 161.728 49.7009 161.728 46.8189C161.728 43.9349 159.382 41.5879 156.497 41.5879ZM156.497 49.0459C155.268 49.0459 154.268 48.0469 154.268 46.8189C154.268 45.5889 155.268 44.5879 156.497 44.5879C157.727 44.5879 158.728 45.5889 158.728 46.8189C158.728 48.0469 157.727 49.0459 156.497 49.0459Z" fill="black"/>
<path d="M209.947 45.4951H167.683C166.854 45.4951 166.183 46.1661 166.183 46.9951C166.183 47.8241 166.854 48.4951 167.683 48.4951H209.947C210.776 48.4951 211.447 47.8241 211.447 46.9951C211.447 46.1661 210.776 45.4951 209.947 45.4951Z" fill="black"/>
</svg>
