<svg width="75" height="68" viewBox="0 0 75 68" fill="none" xmlns="http://www.w3.org/2000/svg">
<path d="M73.5325 6.57389H57.1282L55.5941 1.06384C55.4854 0.669572 55.2103 0.339894 54.8402 0.155775C54.4702 -0.0283429 54.0374 -0.0505136 53.6517 0.0960099L36.1744 6.70113C35.9913 6.62016 35.7897 6.57389 35.5762 6.57389H14.5706C14.1721 6.57389 13.7903 6.73391 13.5133 7.01635L0.568805 20.2343C0.288808 20.4512 0.0998589 20.7558 0.0342652 21.0942C0.0264331 21.1289 0.0244757 21.1655 0.0195806 21.2012C0.0146856 21.2474 0.00685264 21.2918 0.00587363 21.339C0.00489462 21.3573 0 21.3757 0 21.394C0 21.3949 0 21.3959 0 21.3978V66.554C0 67.3522 0.656916 68 1.46851 68H66.9809C67.7915 68 68.4494 67.3522 68.4494 66.554V61.553H73.5315C74.3421 61.553 75 60.9052 75 60.107V8.01985C75.001 7.22071 74.3431 6.57389 73.5325 6.57389ZM57.8096 19.9528H9.30941L53.1906 3.36676L57.8096 19.9528ZM15.1942 9.4658H28.8602L7.16439 17.6663L15.1942 9.4658ZM65.5124 65.1081H2.93703V22.8447H65.5124V65.1081ZM72.0639 58.6611H68.4494V21.3988C68.4494 20.5997 67.7915 19.9528 66.9809 19.9528H60.8533L57.9329 9.4658H72.063V58.6611H72.0639Z" fill="black"/>
</svg>
