<svg width="103" height="75" viewBox="0 0 103 75" fill="none" xmlns="http://www.w3.org/2000/svg">
<path opacity="0.3" d="M78.3968 75C70.3347 75 64.4966 72.5961 60.8826 67.7885C57.2686 62.9808 55.4615 57.4519 55.4615 51.2019C55.4615 47.5961 56.0175 43.6298 57.1295 39.3029C58.2416 34.976 60.3266 30.649 63.3846 26.3221C66.7206 21.7548 71.3077 17.3077 77.1457 12.9808C82.9838 8.41347 90.7679 4.08654 100.498 0L103 3.24519C97.4399 7.8125 92.9919 11.7788 89.6559 15.1442C86.5978 18.5096 84.2348 21.6346 82.5668 24.5192C80.8988 27.4038 79.7868 30.0481 79.2308 32.4519C78.9528 34.8558 78.8138 37.3798 78.8138 40.024C78.8138 41.9471 79.5088 43.3894 80.8988 44.3509C82.2888 45.0721 83.8178 46.0336 85.4858 47.2356C87.9878 48.6779 90.2119 50.1202 92.1579 51.5625C94.3819 52.7644 95.4939 55.4086 95.4939 59.4952C95.4939 63.8221 93.8259 67.5481 90.4899 70.6731C87.1538 73.5577 83.1228 75 78.3968 75ZM23.3522 75C15.2901 75 9.31309 72.5961 5.42105 67.7885C1.80702 62.9808 0 57.4519 0 51.2019C0 47.5961 0.556005 43.75 1.66802 39.6635C2.78003 35.3365 5.00405 30.8894 8.34008 26.3221C11.6761 21.7548 16.2632 17.3077 22.1012 12.9808C27.9393 8.41347 35.7233 4.08654 45.4534 0L47.9555 3.24519C42.3954 7.8125 37.9474 11.7788 34.6113 15.1442C31.5533 18.5096 29.1903 21.6346 27.5223 24.5192C25.8542 27.4038 24.7422 30.0481 24.1862 32.4519C23.9082 34.8558 23.7692 37.3798 23.7692 40.024C23.7692 41.9471 24.3252 43.3894 25.4372 44.3509C26.8273 45.3125 28.3563 46.1538 30.0243 46.875C32.2483 48.0769 34.4723 49.5192 36.6964 51.2019C39.1984 52.6442 40.4494 55.4086 40.4494 59.4952C40.4494 63.8221 38.7814 67.5481 35.4453 70.6731C32.3873 73.5577 28.3563 75 23.3522 75Z" fill="#F39629"/>
</svg>
