<svg width="107" height="114" viewBox="0 0 107 114" fill="none" xmlns="http://www.w3.org/2000/svg">
<path d="M40.9304 45.7822H31.9909V41.7842H40.9304V32.6201H44.9733V41.7842H53.9352V45.7822H44.9733V54.9014H40.9304V45.7822Z" fill="#FBF8F5"/>
<path d="M0.201759 39.2943C0.869919 28.1498 5.83846 17.9345 14.1924 10.5262C22.5464 3.11802 33.2763 -0.582816 44.4342 0.0746724C55.5802 0.74266 65.7995 5.70991 73.2083 14.0617C88.0614 30.8034 86.9929 56.2434 71.1277 71.7042L77.9183 79.4497L80.096 77.5192C80.9086 76.7974 82.1477 76.8709 82.8697 77.6793L106.498 104.077C106.847 104.466 107.026 104.978 106.997 105.499C106.968 106.02 106.733 106.509 106.345 106.857L98.9213 113.499C98.5446 113.835 98.0759 114 97.6086 114C97.0678 114 96.5296 113.778 96.141 113.344L72.4811 86.9117C72.1319 86.522 71.9521 86.0088 71.9823 85.4852C72.0125 84.9642 72.2501 84.4734 72.6412 84.1269L74.9713 82.0613L68.1847 74.321C60.7246 80.3539 51.566 83.5915 41.9886 83.5915C41.1393 83.5915 40.2848 83.5652 39.4302 83.5141C28.2841 82.8448 18.0649 77.8775 10.6547 69.5257C3.24458 61.1739 -0.4664 50.4388 0.201759 39.2943ZM97.7622 109.252L102.25 105.236L81.242 81.766L76.7342 85.7621L97.7622 109.252ZM13.6017 66.9141C20.3135 74.4798 29.5706 78.9786 39.6665 79.5836C49.7611 80.2056 59.4907 76.8263 67.0584 70.1176C82.6794 56.2657 84.1168 32.2903 70.2613 16.6733C63.5496 9.1076 54.2925 4.60885 44.1966 4.00386C43.4221 3.95661 42.6502 3.9343 41.8797 3.9343C32.62 3.9343 23.7908 7.27555 16.8034 13.4712C9.2357 20.1812 4.7358 29.4359 4.13065 39.5292C3.52681 49.6239 6.89123 59.3497 13.6017 66.9141Z" fill="#FBF8F5"/>
</svg>
